<svg width="30" height="27" viewBox="0 0 30 27" fill="none" xmlns="http://www.w3.org/2000/svg">
<path d="M2.66667 21.3333C2.31305 21.3333 1.97391 21.1929 1.72386 20.9428C1.47381 20.6928 1.33334 20.3536 1.33334 20V2.66668C1.33334 2.31305 1.47381 1.97392 1.72386 1.72387C1.97391 1.47382 2.31305 1.33334 2.66667 1.33334H9.33334C10.7478 1.33334 12.1044 1.89525 13.1046 2.89544C14.1048 3.89563 14.6667 5.25219 14.6667 6.66668C14.6667 5.25219 15.2286 3.89563 16.2288 2.89544C17.229 1.89525 18.5855 1.33334 20 1.33334H26.6667C27.0203 1.33334 27.3594 1.47382 27.6095 1.72387C27.8595 1.97392 28 2.31305 28 2.66668V20C28 20.3536 27.8595 20.6928 27.6095 20.9428C27.3594 21.1929 27.0203 21.3333 26.6667 21.3333H18.6667C17.6058 21.3333 16.5884 21.7548 15.8382 22.5049C15.0881 23.2551 14.6667 24.2725 14.6667 25.3333C14.6667 24.2725 14.2452 23.2551 13.4951 22.5049C12.745 21.7548 11.7275 21.3333 10.6667 21.3333H2.66667Z" stroke="#009966" stroke-width="2.66667" stroke-linecap="round" stroke-linejoin="round"/>
</svg>
