<svg width="16" height="16" viewBox="0 0 16 16" fill="none" xmlns="http://www.w3.org/2000/svg">
<path d="M8 4.66667V14" stroke="white" stroke-width="1.33333" stroke-linecap="round" stroke-linejoin="round"/>
<path d="M2.00004 12C1.82323 12 1.65366 11.9298 1.52864 11.8047C1.40361 11.6797 1.33337 11.5101 1.33337 11.3333V2.66667C1.33337 2.48986 1.40361 2.32029 1.52864 2.19526C1.65366 2.07024 1.82323 2 2.00004 2H5.33337C6.04062 2 6.7189 2.28095 7.21899 2.78105C7.71909 3.28115 8.00004 3.95942 8.00004 4.66667C8.00004 3.95942 8.28099 3.28115 8.78109 2.78105C9.28119 2.28095 9.95946 2 10.6667 2H14C14.1769 2 14.3464 2.07024 14.4714 2.19526C14.5965 2.32029 14.6667 2.48986 14.6667 2.66667V11.3333C14.6667 11.5101 14.5965 11.6797 14.4714 11.8047C14.3464 11.9298 14.1769 12 14 12H10C9.46961 12 8.9609 12.2107 8.58583 12.5858C8.21075 12.9609 8.00004 13.4696 8.00004 14C8.00004 13.4696 7.78933 12.9609 7.41425 12.5858C7.03918 12.2107 6.53047 12 6.00004 12H2.00004Z" stroke="white" stroke-width="1.33333" stroke-linecap="round" stroke-linejoin="round"/>
</svg>
