<svg width="32" height="32" viewBox="0 0 32 32" fill="none" xmlns="http://www.w3.org/2000/svg">
<path d="M28.56 14.5627C28.7987 14.4574 29.0012 14.2844 29.1426 14.0651C29.2839 13.8458 29.3578 13.5899 29.3551 13.329C29.3524 13.0681 29.2732 12.8138 29.1274 12.5974C28.9816 12.3811 28.7755 12.2123 28.5347 12.112L17.1067 6.90667C16.7592 6.7482 16.3818 6.66619 16 6.66619C15.6181 6.66619 15.2407 6.7482 14.8933 6.90667L3.46666 12.1067C3.22929 12.2106 3.02735 12.3815 2.88555 12.5984C2.74375 12.8153 2.66824 13.0689 2.66824 13.328C2.66824 13.5871 2.74375 13.8407 2.88555 14.0576C3.02735 14.2745 3.22929 14.4454 3.46666 14.5493L14.8933 19.76C15.2407 19.9185 15.6181 20.0005 16 20.0005C16.3818 20.0005 16.7592 19.9185 17.1067 19.76L28.56 14.5627Z" stroke="white" stroke-width="2.66667" stroke-linecap="round" stroke-linejoin="round"/>
<path d="M29.3333 13.3333V21.3333" stroke="white" stroke-width="2.66667" stroke-linecap="round" stroke-linejoin="round"/>
<path d="M8 16.6667V21.3333C8 22.3942 8.84286 23.4116 10.3431 24.1618C11.8434 24.9119 13.8783 25.3333 16 25.3333C18.1217 25.3333 20.1566 24.9119 21.6569 24.1618C23.1571 23.4116 24 22.3942 24 21.3333V16.6667" stroke="white" stroke-width="2.66667" stroke-linecap="round" stroke-linejoin="round"/>
</svg>
